<svg xmlns="http://www.w3.org/2000/svg" width="45" height="39" viewBox="0 0 45 39">
    <path fill="#FFF" fill-rule="evenodd" d="M42.446 16.627h-1.07V10.26c0-2.603-2.14-4.714-4.758-4.714h-.987l.01-2.366C35.64 1.425 34.2 0 32.43 0H3.901C1.77 0 .028 1.7 0 3.81v31.244c0 1.754 1.439 3.18 3.209 3.18h33.418c2.628 0 4.758-2.12 4.758-4.715v-6.377h1.07c1.383 0 2.508-1.114 2.508-2.485v-5.545a2.513 2.513 0 0 0-2.517-2.485zM3.9 2.193h28.53c.544 0 .996.438.996.977l-.009 2.375H3.901a1.68 1.68 0 0 1-1.688-1.671c0-.923.756-1.681 1.688-1.681zM39.163 33.51c0 1.389-1.144 2.521-2.545 2.521H3.2a.993.993 0 0 1-.996-.986V7.355a3.914 3.914 0 0 0 1.697.383h32.717c1.401 0 2.545 1.133 2.545 2.521v6.368H31.61c-1.384 0-2.509 1.115-2.509 2.485v5.545c0 1.37 1.125 2.485 2.509 2.485h7.552v6.368zm3.578-8.853a.29.29 0 0 1-.295.293H31.62a.29.29 0 0 1-.295-.293v-5.545c0-.155.129-.292.295-.292h10.826c.156 0 .295.128.295.292v5.545z"/>
</svg>
