<svg xmlns="http://www.w3.org/2000/svg" width="15" height="14" viewBox="0 0 15 14">
    <path fill="#485465" fill-opacity=".7" fill-rule="evenodd" d="M14.841 4.517L10.555.162A.51.51 0 0 0 10.18 0a.51.51 0 0 0-.377.162.528.528 0 0 0-.16.383v2.177H7.769c-3.98 0-6.42 1.143-7.325 3.429C.148 6.91 0 7.855 0 8.983c0 .942.354 2.22 1.063 3.837a20.226 20.226 0 0 0 .2.46.97.97 0 0 0 .11.186c.067.097.145.145.234.145.084 0 .15-.028.197-.085a.32.32 0 0 0 .071-.213 1.76 1.76 0 0 0-.021-.225 1.788 1.788 0 0 1-.02-.2 14.602 14.602 0 0 1-.043-1.046c0-.573.05-1.086.147-1.54.097-.454.233-.846.406-1.178.173-.332.396-.618.67-.86.273-.24.567-.437.882-.59a4.733 4.733 0 0 1 1.114-.362c.427-.088.856-.149 1.289-.183.432-.034.922-.051 1.469-.051h1.875v2.178c0 .147.053.275.159.383a.511.511 0 0 0 .376.161c.146 0 .271-.054.377-.161l4.286-4.356A.527.527 0 0 0 15 4.9a.529.529 0 0 0-.159-.383z"/>
</svg>
