<svg xmlns="http://www.w3.org/2000/svg" width="19" height="14" viewBox="0 0 19 14">
    <g fill="#485465" fill-opacity=".7" fill-rule="evenodd">
        <path d="M10.732 9.505c1.1-.453 1.968-1.07 2.603-1.85.636-.78.954-1.63.954-2.549 0-.92-.318-1.769-.954-2.549-.635-.78-1.503-1.397-2.603-1.85C9.633.254 8.437.027 7.145.027c-1.293 0-2.488.227-3.588.68-1.1.453-1.967 1.07-2.603 1.85C.318 3.337 0 4.187 0 5.107c0 .786.24 1.527.72 2.22.481.695 1.14 1.28 1.98 1.756a5.383 5.383 0 0 1-.208.437c-.071.132-.156.26-.254.382l-.228.287c-.055.07-.143.167-.264.293a6.98 6.98 0 0 0-.234.248c0-.007-.013.008-.04.044-.028.037-.043.053-.046.05-.003-.003-.017.013-.04.05l-.036.054-.026.05a.204.204 0 0 0-.02.059.38.38 0 0 0-.005.064c0 .023.003.045.01.065a.327.327 0 0 0 .117.208c.064.053.133.08.208.08h.03c.339-.047.63-.1.873-.16a8.63 8.63 0 0 0 2.822-1.269c.608.106 1.204.159 1.786.159 1.292 0 2.488-.226 3.587-.68zm-5.678-.828l-.446.307c-.19.126-.4.255-.63.387l.356-.833-.985-.556c-.65-.37-1.153-.806-1.512-1.309-.359-.502-.538-1.025-.538-1.567 0-.674.266-1.306.797-1.894.53-.589 1.246-1.055 2.146-1.399a8.065 8.065 0 0 1 2.903-.516c1.035 0 2.003.172 2.902.516.9.344 1.616.81 2.147 1.399.531.588.796 1.22.796 1.894 0 .675-.265 1.306-.796 1.894-.531.59-1.247 1.055-2.147 1.399-.9.344-1.867.516-2.902.516a8.988 8.988 0 0 1-1.553-.14l-.538-.098z"/>
        <path d="M17.466 9.871c.48-.69.72-1.433.72-2.226 0-.814-.253-1.574-.76-2.282-.508-.707-1.198-1.295-2.071-1.765a4.999 4.999 0 0 1-.447 4.027c-.453.793-1.103 1.494-1.948 2.103a9.074 9.074 0 0 1-2.68 1.279 10.953 10.953 0 0 1-3.136.446c-.202 0-.5-.013-.893-.04 1.36.873 2.957 1.31 4.79 1.31.583 0 1.178-.053 1.787-.159a8.628 8.628 0 0 0 2.821 1.27c.244.06.535.112.873.159a.31.31 0 0 0 .223-.07.366.366 0 0 0 .132-.218c-.003-.04 0-.061.01-.064.01-.004.009-.025-.005-.065l-.02-.06-.025-.049a.474.474 0 0 0-.076-.104 1.266 1.266 0 0 1-.046-.05 6.976 6.976 0 0 0-.274-.293 3.955 3.955 0 0 1-.264-.291 30.25 30.25 0 0 0-.228-.288 2.503 2.503 0 0 1-.254-.382 5.407 5.407 0 0 1-.208-.436c.839-.477 1.499-1.06 1.979-1.752z"/>
    </g>
</svg>
