<svg xmlns="http://www.w3.org/2000/svg" width="17" height="17" viewBox="0 0 17 17">
    <path fill="#88ADE0" fill-rule="nonzero" d="M14.12 0H2.86A2.865 2.865 0 0 0 0 2.866V8.49c0 .343.281.624.624.624h9.6l-1.377 1.377a.628.628 0 0 0 .44 1.069c.16 0 .32-.062.441-.184l2.443-2.442a.628.628 0 0 0 0-.885L9.728 5.607a.628.628 0 0 0-.885 0 .628.628 0 0 0 0 .884l1.381 1.374H1.25v-5c0-.89.722-1.616 1.61-1.616H14.12c.889 0 1.61.725 1.61 1.617v11.247c0 .892-.721 1.617-1.61 1.617H2.86c-.888 0-1.61-.725-1.61-1.617v-1.457a.626.626 0 0 0-.625-.624.626.626 0 0 0-.624.624v1.457a2.867 2.867 0 0 0 2.859 2.866H14.12a2.865 2.865 0 0 0 2.86-2.866V2.866A2.867 2.867 0 0 0 14.12 0z"/>
</svg>
