<svg xmlns="http://www.w3.org/2000/svg" width="24" height="21" viewBox="0 0 24 21">
    <path fill="#A2A6AD" fill-rule="evenodd" d="M22.638 8.98h-.57V5.551a2.541 2.541 0 0 0-2.538-2.538h-.527l.005-1.274c0-.945-.767-1.712-1.711-1.712H2.08A2.082 2.082 0 0 0 0 2.078v16.824c0 .945.767 1.712 1.711 1.712h17.823a2.541 2.541 0 0 0 2.538-2.538v-3.434h.57c.738 0 1.338-.6 1.338-1.338v-2.986a1.347 1.347 0 0 0-1.342-1.338zM2.08 1.208h15.217c.29 0 .53.236.53.526l-.004 1.279H2.08a.9.9 0 0 1-.9-.9c0-.497.404-.905.9-.905zM20.887 18.07a1.36 1.36 0 0 1-1.357 1.358H1.707a.532.532 0 0 1-.532-.532V3.987c.276.133.58.207.905.207h17.45c.747 0 1.357.61 1.357 1.357v3.43h-4.028c-.738 0-1.338.6-1.338 1.337v2.986c0 .738.6 1.338 1.338 1.338h4.028v3.429zm1.908-4.767a.155.155 0 0 1-.157.158h-5.774a.155.155 0 0 1-.157-.158v-2.986c0-.083.068-.157.157-.157h5.774c.083 0 .157.069.157.157v2.986z"/>
</svg>
