<svg xmlns="http://www.w3.org/2000/svg" width="22" height="22" viewBox="0 0 22 22">
    <g fill="none" fill-rule="evenodd" stroke="#A2A6AD" stroke-width="1.8" transform="translate(-1 -1)">
        <path d="M19.925 18.967l-.024.041a.372.372 0 0 1 .024-.041zm.395-.127c.027.009.055.02.084.034l-.084-.034zM3.911 5.28l.012.012c.01-.01.004-.013-.012-.012zM1.966 8.73c-.013.082-.067.19-.193.331l.053-.09.14-.24zm.061-.107l1.905-3.282 2.495 1.026.44.18.396-.26.005-.003c.077-.05.753-.51.932-.622.294-.184.529-.302.757-.377l.526-.173.083-.549.4-2.66h3.799l.416 2.666.072.461.42.207-.005-.002c.956.471 1.351.69 1.752 1.007l.406.32.481-.19 2.58-1.017 1.873 3.23-2.09 1.661-.495.394.203.599-.001-.004c.054.16.066.312.066.82 0 .13-.013.243-.046.455-.054.35-.067.449-.067.65v.475l.392.268 2.248 1.54-1.912 3.294-2.527-.999-.48-.19-.407.32c-.4.317-.795.537-1.747 1.006l-.005.002-.415.204-.072.462-.399 2.554h-3.93l-.399-2.554-.072-.462-.42-.206.006.002c-.957-.471-1.352-.691-1.753-1.007l-.406-.32-.481.19-2.58 1.016-1.873-3.23 2.09-1.66.495-.395-.203-.598.002.004c-.054-.16-.066-.313-.066-.82 0-.13.012-.244.045-.456.054-.349.067-.448.067-.65v-.45l-.36-.27-2.14-1.607z"/>
        <circle cx="12" cy="12" r="3.289"/>
    </g>
</svg>
